<svg width="24" height="32" viewBox="0 0 24 32" fill="none" xmlns="http://www.w3.org/2000/svg">
<path d="M5.99855 32.0007C9.30976 32.0007 11.9971 29.6114 11.9971 26.6674V21.334H5.99855C2.68735 21.334 0 23.7233 0 26.6674C0 29.6114 2.68735 32.0007 5.99855 32.0007Z" fill="#0ACF83"/>
<path d="M0 15.9994C0 13.0554 2.68735 10.666 5.99855 10.666H11.9971V21.3328H5.99855C2.68735 21.3328 0 18.9434 0 15.9994Z" fill="#A259FF"/>
<path d="M0 5.33337C0 2.38935 2.68735 0 5.99855 0H11.9971V10.6667H5.99855C2.68735 10.6667 0 8.27739 0 5.33337Z" fill="#F24E1E"/>
<path d="M12.0039 0H18.0025C21.3137 0 24.001 2.38935 24.001 5.33337C24.001 8.27739 21.3137 10.6667 18.0025 10.6667H12.0039V0Z" fill="#FF7262"/>
<path d="M24.001 15.9994C24.001 18.9434 21.3137 21.3328 18.0025 21.3328C14.6913 21.3328 12.0039 18.9434 12.0039 15.9994C12.0039 13.0554 14.6913 10.666 18.0025 10.666C21.3137 10.666 24.001 13.0554 24.001 15.9994Z" fill="#1ABCFE"/>
</svg>
