<svg width="32" height="32" viewBox="0 0 32 32" fill="none" xmlns="http://www.w3.org/2000/svg">
<path d="M10.2216 19.8805C10.5376 20.0791 15.3122 21.0627 16.4788 21.2586C16.8828 21.3451 16.5962 21.7666 16.0389 22.0517C14.7815 22.3908 8.68299 19.8805 10.2216 19.8805ZM17.7508 1.95914L22.4241 6.76914C22.8681 7.22852 22.8614 8.11756 22.6134 8.37293L20.2934 6.49216L19.8375 9.27683L17.8975 8.24052L14.7935 10.2267L13.7656 6.03818L12.0976 8.96202H9.54697C8.50699 8.96202 8.38566 7.6244 9.32965 6.66781C10.9789 4.86406 12.8722 3.02518 13.9016 1.95914C14.9362 0.887697 16.7375 0.918773 17.7508 1.95914ZM13.0482 1.09847L1.23513 13.3478C-2.75547 18.3564 3.95241 17.774 6.82702 19.2157C7.859 20.2844 2.87376 21.0735 3.90574 22.1422C4.93639 23.211 10.143 24.2013 11.1763 25.2687C12.2069 26.3375 9.06432 27.4711 10.0963 28.5385C11.1269 29.6085 13.5136 28.5952 13.9602 31.0624C14.2776 32.8242 18.2588 31.819 20.2054 30.376C21.2374 29.3072 18.2321 29.4072 19.2641 28.3385C21.8281 25.6808 24.2174 27.3738 25.0947 24.7094C25.528 23.3934 21.3188 22.6813 22.3521 21.6126C25.32 19.8561 35.5772 18.7131 30.7093 13.7815L18.4668 1.09847C16.9695 -0.358039 14.4696 -0.374253 13.0496 1.09847H13.0482ZM26.6173 24.7094C26.6173 25.3174 31.0359 25.716 31.0359 24.5662C30.4066 22.7205 27.14 22.8448 26.6173 24.7094ZM6.71369 27.9386C7.75901 28.856 9.37631 27.7102 9.8603 26.4307C8.84699 25.0661 5.05106 26.4807 6.71369 27.9386ZM26.0627 25.9578C24.7147 27.1846 26.2147 28.4277 27.544 27.6359C27.84 27.3319 27.536 26.2632 26.064 25.9578H26.0627Z" fill="black"/>
</svg>
