<svg width="98" height="99" viewBox="0 0 98 99" fill="none" xmlns="http://www.w3.org/2000/svg">
<g filter="url(#filter0_d_754_5230)">
<rect x="9.57031" y="45.5977" width="56" height="56" rx="7" transform="rotate(-45 9.57031 45.5977)" fill="#7509BD"/>
</g>
<path d="M56.7703 32.5977C53.9863 32.5977 51.3143 34.0102 49.5703 36.2423C47.8263 34.0102 45.1543 32.5977 42.3703 32.5977C37.4423 32.5977 33.5703 36.8178 33.5703 42.1889C33.5703 48.7808 39.0103 54.1519 47.2503 62.3132L49.5703 64.5977L51.8903 62.2957C60.1303 54.1519 65.5703 48.7808 65.5703 42.1889C65.5703 36.8178 61.6983 32.5977 56.7703 32.5977ZM49.7303 59.7148L49.5703 59.8892L49.4103 59.7148C41.7943 52.1987 36.7703 47.2287 36.7703 42.1889C36.7703 38.7012 39.1703 36.0854 42.3703 36.0854C44.8343 36.0854 47.2343 37.8118 48.0823 40.2009H51.0743C51.9063 37.8118 54.3063 36.0854 56.7703 36.0854C59.9703 36.0854 62.3703 38.7012 62.3703 42.1889C62.3703 47.2287 57.3463 52.1987 49.7303 59.7148Z" fill="white"/>
<defs>
<filter id="filter0_d_754_5230" x="0.46875" y="0.898438" width="97.3984" height="97.3984" filterUnits="userSpaceOnUse" color-interpolation-filters="sRGB">
<feFlood flood-opacity="0" result="BackgroundImageFix"/>
<feColorMatrix in="SourceAlpha" type="matrix" values="0 0 0 0 0 0 0 0 0 0 0 0 0 0 0 0 0 0 127 0" result="hardAlpha"/>
<feOffset dy="4"/>
<feGaussianBlur stdDeviation="6"/>
<feColorMatrix type="matrix" values="0 0 0 0 0 0 0 0 0 0 0 0 0 0 0 0 0 0 0.25 0"/>
<feBlend mode="normal" in2="BackgroundImageFix" result="effect1_dropShadow_754_5230"/>
<feBlend mode="normal" in="SourceGraphic" in2="effect1_dropShadow_754_5230" result="shape"/>
</filter>
</defs>
</svg>
