<svg width="32" height="32" viewBox="0 0 32 32" fill="none" xmlns="http://www.w3.org/2000/svg">
<path d="M26.6875 0H5.3125C2.37849 0 0 2.43947 0 5.44872V26.5513C0 29.5605 2.37849 32 5.3125 32H26.6875C29.6215 32 32 29.5605 32 26.5513V5.44872C32 2.43947 29.6215 0 26.6875 0Z" fill="#001E36"/>
<path d="M7.20703 22.4395V8.37052C7.20703 8.26795 7.25003 8.21642 7.33591 8.21642L7.47178 8.21603L7.70403 8.21347L8.02678 8.20693L9.10803 8.18347L10.2674 8.16142C10.6752 8.15424 11.0794 8.15039 11.4802 8.15039C12.5677 8.15039 13.4835 8.28988 14.2279 8.56872C14.8994 8.80167 15.5117 9.18525 16.0204 9.69154C16.4516 10.1304 16.7849 10.66 16.9972 11.2439C17.198 11.812 17.2997 12.4119 17.2978 13.0162C17.2978 14.1906 17.0329 15.1594 16.5034 15.9224C15.9855 16.6669 15.2631 17.2362 14.4284 17.5578L14.3568 17.5848C13.4852 17.9182 12.5199 18.0387 11.4613 18.0463L11.2968 18.0468L11.0527 18.0455L10.9295 18.0437L10.7923 18.0404L10.7095 18.0371L10.6593 18.0344L10.5357 18.0298L10.3845 18.0265L10.157 18.0249L10.1064 18.0248V22.4174C10.1102 22.4444 10.1078 22.4718 10.0994 22.4976C10.091 22.5234 10.0769 22.5469 10.0581 22.5661C10.0394 22.5854 10.0165 22.5999 9.99134 22.6084C9.96618 22.617 9.93941 22.6195 9.91316 22.6156H7.35741C7.25703 22.6156 7.20703 22.5572 7.20703 22.4395ZM10.1065 10.8585V15.4472C10.2779 15.4614 10.4497 15.4687 10.6215 15.4692H11.33C11.8185 15.4676 12.3041 15.393 12.7717 15.2478L12.8649 15.218C13.2902 15.0884 13.6703 14.8361 13.9598 14.4913C14.2288 14.1659 14.3682 13.7176 14.3778 13.1462L14.3784 13.0822C14.3897 12.6563 14.2817 12.236 14.067 11.8713C13.8415 11.5185 13.5154 11.2456 13.1333 11.0896C12.6343 10.8907 12.1013 10.7971 11.5662 10.8145L11.2939 10.8153L11.1222 10.8168L10.9583 10.819L10.727 10.8236L10.5583 10.8285L10.4707 10.8318L10.3535 10.8374L10.2538 10.8437L10.1969 10.8483L10.1478 10.8532L10.1262 10.8558L10.1065 10.8585ZM25.5978 14.6128C25.2233 14.4155 24.8261 14.2672 24.4155 14.1715L24.3205 14.1505C23.8688 14.0442 23.4077 13.9857 22.9444 13.9758L22.8287 13.9744C22.557 13.9668 22.2858 14.0002 22.0237 14.0735C21.8568 14.1115 21.7084 14.209 21.6049 14.3486C21.535 14.4603 21.4977 14.5902 21.4977 14.723C21.5016 14.8517 21.5468 14.9755 21.6264 15.0751C21.7403 15.2118 21.8773 15.3263 22.0308 15.4132L22.0773 15.4385C22.3833 15.6075 22.6987 15.7582 23.0218 15.8897C23.7422 16.1371 24.4306 16.4735 25.0718 16.8915C25.5086 17.1743 25.8701 17.564 26.1238 18.0255C26.337 18.4625 26.4438 18.9459 26.435 19.4345C26.4479 20.0797 26.2681 20.7136 25.9198 21.251C25.5469 21.7965 25.029 22.2206 24.4278 22.4728C23.7982 22.7567 23.0249 22.9032 22.1082 22.9128L22.0129 22.9133C21.4446 22.9192 20.8771 22.8682 20.3184 22.761L20.1989 22.7372C19.7285 22.6487 19.2707 22.5008 18.8358 22.2968C18.7921 22.2737 18.7551 22.239 18.7287 22.1965C18.7023 22.1539 18.6874 22.1049 18.6855 22.0545V19.6547C18.683 19.6315 18.6866 19.6079 18.6961 19.5865C18.7055 19.5652 18.7205 19.5469 18.7393 19.5336C18.7577 19.5229 18.7789 19.5182 18.8 19.5202C18.821 19.5222 18.841 19.5307 18.8573 19.5446C19.3709 19.8552 19.9285 20.0818 20.5102 20.2162C21.0229 20.348 21.5488 20.4182 22.0773 20.4254C22.578 20.4254 22.9465 20.3592 23.1828 20.2272C23.2895 20.1771 23.3797 20.0964 23.4426 19.9948C23.5054 19.8932 23.5383 19.7751 23.537 19.6547C23.537 19.4642 23.4297 19.2806 23.215 19.1044C23.125 19.0305 22.9959 18.9501 22.8279 18.8633L22.7475 18.8228L22.6618 18.7814L22.6168 18.7604L22.5225 18.7176C22.5062 18.7103 22.4898 18.703 22.4734 18.6958L22.3709 18.6517L22.3175 18.6292L22.2068 18.5837L22.1493 18.5606L22.0302 18.5136L21.9055 18.4658C21.2315 18.2252 20.5924 17.8919 20.0057 17.475C19.5861 17.1757 19.2406 16.7798 18.9968 16.3191C18.7857 15.8853 18.6789 15.4059 18.6855 14.921C18.6843 14.3385 18.8403 13.767 19.1363 13.2697C19.4738 12.7223 19.9583 12.2864 20.5317 12.0149C21.1613 11.6922 21.9483 11.5306 22.8929 11.5304C23.4462 11.5258 23.9989 11.5663 24.5459 11.6515C24.942 11.7031 25.3292 11.8105 25.6967 11.9708C25.7558 11.9882 25.8034 12.033 25.8254 12.0919C25.84 12.1456 25.8472 12.2012 25.8469 12.2571V14.4808C25.85 14.5333 25.8254 14.5837 25.7825 14.6128C25.7538 14.6275 25.7222 14.6351 25.6902 14.6351C25.6581 14.6351 25.6265 14.6275 25.5978 14.6128Z" fill="#31A8FF"/>
</svg>
