<svg width="71" height="63" viewBox="0 0 71 63" fill="none" xmlns="http://www.w3.org/2000/svg">
<path d="M5.81758 45.2536C12.6049 52.9778 18.0922 50.3298 26.0417 54.8569C30.5717 57.4356 33.704 62.8097 40.0759 62.3871C44.8682 62.0684 49.2259 58.764 51.3741 55.0197C52.3774 53.2705 52.2395 50.6328 53.3327 49.0135C55.5901 45.6727 59.3159 44.857 62.8829 42.713C66.9936 40.2398 70.3346 37.0653 70.0685 31.8541C69.81 26.771 65.3585 23.1687 63.7962 18.4338C62.1611 13.4771 63.9187 9.59078 58.3778 6.11663C53.9703 3.35429 49.0191 4.98572 44.4374 3.96911C32.7257 1.37302 26.327 -4.5119 17.5255 6.16859C13.8437 10.6368 12.1799 16.2914 8.22425 20.3388C1.19376 27.5382 -3.18689 35.0061 5.81758 45.2536Z" fill="#EDEFFF" fill-opacity="0.05"/>
<path d="M54.1969 50.5609C54.2019 50.5832 54.207 50.6055 54.2269 50.6233C54.2519 50.6498 54.2968 50.6498 54.3367 50.6498C54.6159 50.6456 54.9003 50.6278 55.1745 50.5832C55.2943 50.5654 55.4389 50.5208 55.4639 50.4141C55.4737 50.3649 55.4537 50.3116 55.4338 50.267C55.3143 49.9866 55.1944 49.7059 55.0748 49.4255C55.0698 49.4165 55.0647 49.4032 55.0549 49.3987C55.0397 49.39 55.0198 49.3855 55.0049 49.3855C54.8054 49.3809 54.6061 49.3987 54.4066 49.4343C54.2819 49.4566 54.0476 49.4702 53.9875 49.5902C53.9277 49.7059 54.0273 49.9019 54.0574 50.0176C54.1074 50.1958 54.1523 50.3785 54.1969 50.5609Z" fill="#F9E9DE"/>
<path d="M47.3954 50.5601C47.6646 50.5737 47.934 50.5869 48.1981 50.6047C48.2231 50.6047 48.2532 50.6047 48.2731 50.5914C48.2981 50.5737 48.2981 50.5468 48.3031 50.52C48.318 50.2083 48.3079 49.8969 48.2781 49.5851C48.2781 49.5628 48.2731 49.536 48.2582 49.5182C48.2383 49.4959 48.2032 49.4872 48.1684 49.4781C48.0137 49.4471 47.8591 49.416 47.6997 49.416C47.5748 49.416 47.4302 49.4338 47.3205 49.4917C47.206 49.5538 47.2259 49.5939 47.2458 49.7009C47.3005 49.9858 47.3353 50.2707 47.3954 50.5601Z" fill="#F9E9DE"/>
<path d="M53.6828 49.5884C54.2363 49.6954 54.8249 49.633 55.3335 49.4147C54.76 47.6918 54.5905 47.1842 54.0219 45.461C53.8422 44.918 53.6578 44.3657 53.5829 43.8047C53.4934 43.1101 53.568 42.4068 53.643 41.7122C53.932 39.014 54.6702 30.0733 54.9596 27.3796C54.9846 27.1525 55.0093 26.921 54.9296 26.7028C54.705 26.0839 52.6951 25.977 51.967 25.9236C51.8076 25.9103 50.6156 25.9058 50.4859 25.986C50.3363 26.0795 49.1541 25.888 49.1291 26.0483C48.7802 28.1632 50.0969 32.6111 50.1168 34.8776C50.1219 35.63 50.4609 40.4475 50.5258 41.2C50.6406 42.5225 51.0992 43.9205 51.7178 45.1315C52.6654 46.9927 52.79 47.4157 53.6828 49.5884Z" fill="#D6D7D8"/>
<path d="M49.5867 26.3026C49.407 26.1735 47.6166 26.0533 47.3873 26.0488L44.5345 26.0889C44.4697 30.203 45.3872 41.499 46.2702 45.5372C46.6491 47.2782 47.083 47.866 47.0881 49.6381C47.5068 49.6381 47.9208 49.6381 48.3399 49.6381C48.4794 44.0902 50.0355 32.5496 50.1803 27.0017C50.1853 26.7256 49.8311 26.4807 49.5867 26.3026Z" fill="#97A8B2"/>
<path d="M48.0299 13.3867C47.626 12.189 46.1 12.0198 45.8356 13.5648C45.5962 14.9629 44.444 17.9015 43.7858 19.2729C43.4715 19.9319 42.8582 20.4395 42.0002 20.7244C40.2945 21.2899 38.6388 21.9578 36.9032 22.4564C36.9082 22.4653 36.9082 22.4698 36.9082 22.4787C36.6189 22.5811 36.3047 22.6345 35.9905 22.6345C35.5815 22.6345 35.1426 22.5499 34.7935 22.7236C34.8134 22.7636 34.8334 22.8037 34.8583 22.8482C34.9431 22.8616 35.0229 22.8749 35.1077 22.8838C34.9082 22.9239 34.7137 22.9907 34.5342 23.0798C34.3596 23.1688 34.19 23.3202 34.2449 23.4805C34.3047 23.6408 34.5441 23.6853 34.7436 23.6898C35.5815 23.712 36.3945 23.4849 37.1875 23.2356C39.3868 22.8438 40.898 22.167 43.1125 21.7796C43.5414 21.7039 43.9902 21.6238 44.3643 21.4235C44.7283 21.2275 44.9826 20.9426 45.2072 20.6576C46.6984 18.7609 48.6833 15.3057 48.0299 13.3867Z" fill="#7CAFF6"/>
<path d="M51.384 10.905C51.6933 10.6156 51.9327 10.2059 52.0624 9.69833C52.3018 8.75886 52.4264 7.77041 52.1721 6.84875C51.8777 5.78907 50.8355 4.64032 49.5186 4.73828C47.9777 4.84959 47.7433 6.6484 47.6285 7.85057C47.5336 8.80339 47.7234 9.80964 48.3515 10.5443C49.2994 11.6396 50.5759 11.6708 51.384 10.905Z" fill="#F9E9DE"/>
<path d="M45.2073 50.4084C45.4518 50.4129 45.701 50.4262 45.9455 50.4618C46.2349 50.4974 46.524 50.5598 46.8134 50.5332C46.943 50.5197 47.0676 50.4931 47.1973 50.4753C47.3969 50.4485 47.5964 50.453 47.7957 50.453C47.9804 50.4575 48.1648 50.4575 48.3495 50.4618C48.3992 50.4618 48.4592 50.4663 48.4991 50.4931C48.544 50.5242 48.5589 50.5733 48.569 50.6222C48.6139 50.8048 48.6386 50.9918 48.6386 51.1787C48.6386 51.2899 48.6288 51.4147 48.544 51.4949C48.4842 51.5528 48.3944 51.5839 48.3096 51.6062C48.1449 51.6417 47.9754 51.6508 47.8058 51.6595C46.9329 51.7041 46.0552 51.7442 45.1823 51.6951C44.8781 51.6773 44.3246 51.7174 44.1001 51.4994C43.9106 51.3167 44.0055 51.0228 44.1203 50.8314C44.3395 50.4663 44.7883 50.4039 45.2073 50.4084Z" fill="#537082"/>
<path d="M45.6133 51.0861C45.6734 51.1039 45.743 51.113 45.8078 51.1085C45.8179 51.1085 45.8277 51.1039 45.8378 51.0994C45.8477 51.0907 45.848 51.0816 45.848 51.0684C45.8628 50.8724 45.8679 50.6722 45.8578 50.4763C45.8578 50.4672 45.8578 50.4585 45.8527 50.4494C45.848 50.4407 45.8328 50.4362 45.8179 50.4317C45.6183 50.387 45.6284 50.4362 45.6284 50.6008C45.6284 50.7612 45.6234 50.9258 45.6133 51.0861Z" fill="#C1C1C1"/>
<path d="M46.2973 50.9911C46.2973 51.0089 46.2976 51.0267 46.3125 51.04C46.3274 51.049 46.3473 51.049 46.3622 51.0445C46.4172 51.0355 46.4719 51.0312 46.5269 51.0222C46.5368 51.0222 46.5469 51.0177 46.5519 51.0132C46.5617 51.0044 46.5617 50.9954 46.5617 50.9821C46.5668 50.8175 46.5668 50.6526 46.5668 50.488C46.5668 50.4789 46.5668 50.4702 46.5617 50.4657C46.557 50.4566 46.5469 50.4566 46.5368 50.4521C46.452 50.4301 46.3723 50.4702 46.2973 50.4521C46.2875 50.6303 46.2973 50.813 46.2973 50.9911Z" fill="#C1C1C1"/>
<path d="M46.9593 50.9591C46.9593 50.9681 46.9643 50.9769 46.9694 50.9814C46.9745 50.9859 46.9843 50.9859 46.9944 50.9859C47.0342 50.9859 47.0791 50.9859 47.119 50.9859C47.1389 50.9859 47.1589 50.9859 47.174 50.9726C47.1838 50.9636 47.1838 50.9503 47.1889 50.9368C47.1987 50.83 47.2139 50.3537 46.9745 50.4426C46.8097 50.5005 46.9343 50.8478 46.9593 50.9591Z" fill="#C1C1C1"/>
<path d="M53.9875 50.6723C54.0574 50.5653 54.1371 50.4586 54.2468 50.3829C54.3613 50.3027 54.5011 50.2536 54.6406 50.2135C54.8202 50.1647 55.0097 50.1336 55.1994 50.1557C55.4885 50.1915 55.7479 50.3651 55.9126 50.5831C56.0771 50.8014 56.1619 51.0597 56.2017 51.3223C56.2118 51.3802 56.2166 51.4426 56.1967 51.5005C56.172 51.5584 56.122 51.5985 56.0622 51.634C55.8826 51.7408 55.6631 51.7809 55.4487 51.8032C55.1296 51.8387 54.8054 51.8523 54.4812 51.8656C54.3316 51.8701 54.1719 51.8743 54.0273 51.83C53.7977 51.7586 53.6782 51.634 53.713 51.4248C53.7579 51.1577 53.8379 50.9081 53.9875 50.6723Z" fill="#537082"/>
<path d="M46.6728 14.8816C46.1842 18.3768 45.1515 21.7874 44.3238 25.2336C44.2438 25.5676 44.1641 25.9148 44.2688 26.2443C44.4134 26.7029 44.8871 27.0279 45.391 27.1927C45.9346 27.3752 46.5232 27.4109 47.1017 27.442C49.2514 27.5489 51.4058 27.5489 53.5505 27.442C53.8446 27.4286 54.1489 27.4109 54.4133 27.2906C54.8671 27.0903 55.1214 26.6317 55.1762 26.182C55.2362 25.7323 55.1312 25.2826 55.0515 24.8329C54.5727 22.1302 54.9418 19.3474 54.4082 16.6492C54.2586 15.879 54.0341 15.1176 53.9645 14.3384C53.9243 13.8887 53.9395 13.4346 53.8348 12.9982C53.7298 12.5574 53.4806 12.1211 53.0467 11.8895C52.2588 11.471 51.2711 11.8851 50.3634 11.9964C49.76 12.0676 49.1467 11.9964 48.5581 11.8717C48.1043 11.7782 47.6504 11.4977 47.3212 11.8673C46.7275 12.5396 46.7876 14.0757 46.6728 14.8816Z" fill="#3281EC"/>
<path d="M46.6218 19.416C46.0531 19.416 46.0531 20.2041 46.6218 20.2041C47.1905 20.1997 47.1905 19.416 46.6218 19.416Z" fill="#333333"/>
<path d="M47.8208 17.4004C47.2524 17.4004 47.2524 18.1885 47.8208 18.1885C48.3895 18.184 48.3895 17.4004 47.8208 17.4004Z" fill="#333333"/>
<path d="M48.8523 20.4609C48.2836 20.4609 48.2836 21.249 48.8523 21.249C49.4209 21.2446 49.4209 20.4609 48.8523 20.4609Z" fill="#333333"/>
<path d="M49.6023 15.8047C49.0336 15.8047 49.0336 16.5928 49.6023 16.5928C50.1706 16.5883 50.1706 15.8047 49.6023 15.8047Z" fill="#333333"/>
<path d="M45.9304 22.5664C45.3617 22.5664 45.3617 23.3545 45.9304 23.3545C46.494 23.35 46.4991 22.5664 45.9304 22.5664Z" fill="#333333"/>
<path d="M50.7312 18.5449C50.1625 18.5449 50.1625 19.333 50.7312 19.333C51.2995 19.333 51.2995 18.5449 50.7312 18.5449Z" fill="#333333"/>
<path d="M45.5005 25.5215C44.9321 25.5215 44.9321 26.3096 45.5005 26.3096C46.0691 26.3096 46.0691 25.5215 45.5005 25.5215Z" fill="#333333"/>
<path d="M47.9849 23.6094C47.4165 23.6094 47.4165 24.3975 47.9849 24.3975C48.5485 24.393 48.5485 23.6094 47.9849 23.6094Z" fill="#333333"/>
<path d="M49.9616 25.6602C49.393 25.6602 49.393 26.4482 49.9616 26.4482C50.5252 26.4438 50.53 25.6602 49.9616 25.6602Z" fill="#333333"/>
<path d="M50.7312 22.5664C50.1625 22.5664 50.1625 23.3545 50.7312 23.3545C51.2995 23.35 51.2995 22.5664 50.7312 22.5664Z" fill="#333333"/>
<path d="M54.1921 25.6602C53.6235 25.6602 53.6235 26.4482 54.1921 26.4482C54.7557 26.4438 54.7557 25.6602 54.1921 25.6602Z" fill="#333333"/>
<path d="M54.1921 22.1279C54.7608 22.1279 54.7608 21.3398 54.1921 21.3398C53.6235 21.3443 53.6235 22.1279 54.1921 22.1279Z" fill="#333333"/>
<path d="M47.9849 14.3125C47.4165 14.3125 47.4165 15.1006 47.9849 15.1006C48.5485 15.0961 48.5485 14.3125 47.9849 14.3125Z" fill="#333333"/>
<path d="M49.9616 13.3916C50.53 13.3916 50.53 12.6035 49.9616 12.6035C49.393 12.6035 49.393 13.3916 49.9616 13.3916Z" fill="#333333"/>
<path d="M52.6296 12.0566C52.061 12.0566 52.061 12.8447 52.6296 12.8447C53.198 12.8447 53.198 12.0566 52.6296 12.0566Z" fill="#333333"/>
<path d="M53.7663 16.5527C53.1977 16.5527 53.1977 17.3408 53.7663 17.3408C54.3347 17.3408 54.3347 16.5527 53.7663 16.5527Z" fill="#333333"/>
<path d="M49.2148 27.2002C48.5863 26.0782 48.3023 24.8449 47.9731 23.6293C47.6239 22.3292 47.3048 21.0247 47.1052 19.6978C46.9208 18.4556 46.831 17.2089 46.8259 15.9578C46.8209 15.3522 46.8408 14.7511 46.8807 14.1501C46.9107 13.6825 46.8509 11.581 47.943 11.9149C48.023 11.9416 48.0828 11.8259 48.0031 11.7903C47.1002 11.3806 46.801 12.3379 46.7162 12.9479C46.4869 14.6443 46.4518 16.3674 46.5865 18.0682C46.7111 19.6622 46.9955 21.2384 47.3895 22.7967C47.7786 24.3329 48.1227 25.9402 48.9156 27.3605C49.0155 27.5386 49.3147 27.3828 49.2148 27.2002Z" fill="#BC6269"/>
<path d="M54.7101 18.7222C54.6804 18.6376 54.5406 18.6732 54.5605 18.7578C55.169 21.6118 55.8225 24.4748 54.6153 27.2843C54.5355 27.4758 54.8797 27.5603 54.9597 27.3689C56.1564 24.5772 55.6827 21.5094 54.7101 18.7222Z" fill="#BC6269"/>
<path d="M53.4091 26.382C53.7681 26.3508 54.1621 26.3241 54.4613 26.5022C54.8054 26.7026 54.9253 27.1033 54.9999 27.464C55.2394 28.6172 55.3491 29.7925 55.3241 30.9637C55.3191 31.1506 55.3093 31.3465 55.2194 31.5157C55.0797 31.7695 54.7805 31.9163 54.4863 32.0233C53.2443 32.4731 51.8628 32.4463 50.5212 32.4107C50.3868 32.4062 50.2419 32.4017 50.1271 32.3393C49.9427 32.2416 49.8779 32.0321 49.8279 31.8407C49.499 30.5006 49.2545 29.1425 49.0999 27.7756C49.0749 27.553 49.0499 27.3215 49.1198 27.1078C49.3693 26.2974 52.5612 26.4577 53.4091 26.382Z" fill="#AA4A4D"/>
<path d="M54.2091 27.4565C53.9795 29.3711 50.658 29.8876 49.8651 28.0353C49.8401 27.9774 49.7405 27.9997 49.7604 28.062C50.5385 30.1903 54.1842 29.5402 54.4536 27.4609C54.4735 27.3185 54.224 27.3184 54.2091 27.4565Z" fill="#BC6269"/>
<path d="M52.2724 28.8305C52.4021 28.7504 52.422 28.5634 52.3072 28.4654C52.1776 28.3541 51.9533 28.4031 51.8834 28.5456C51.8733 28.5634 51.8686 28.5812 51.8686 28.6035C51.8584 28.6391 51.8635 28.6747 51.8784 28.7148C51.9331 28.8572 52.1327 28.9151 52.2724 28.8305Z" fill="#BC6269"/>
<path d="M53.9332 18.9208C53.8883 17.9369 53.7637 16.9573 53.6438 15.9778C53.5989 15.6305 53.5591 15.2787 53.4395 14.9493C53.3298 14.642 53.1653 14.3526 53.1052 14.0365C53.0654 13.805 53.0802 13.5556 52.9408 13.3597C52.7561 13.1059 52.3822 13.0302 52.0429 13.008C51.6538 12.9812 51.225 12.9946 50.9359 13.2261C50.5168 13.5601 50.5867 14.1567 50.7215 14.6465C50.8511 15.1095 51.0055 15.5726 51.1152 16.0401C51.3249 16.9306 51.3648 17.8478 51.5691 18.7383C51.7386 19.4774 51.7187 20.2031 51.7788 20.9601C51.8733 22.1711 51.589 23.3511 51.3347 24.5443C51.1851 25.2523 51.0257 25.9735 51.0305 26.6949C50.8859 27.1134 50.7613 27.5364 50.6215 27.9594C50.6067 28.0083 50.5965 28.0751 50.6465 28.1019C50.6813 28.1197 50.7212 28.1063 50.7563 28.1196C50.7961 28.133 50.816 28.1776 50.8211 28.2132C50.8609 28.4002 50.7711 28.5872 50.7113 28.7697C50.6516 28.9523 50.6215 29.1704 50.7563 29.3174C50.836 29.4064 50.9606 29.4509 51.0855 29.4732C51.2999 29.5177 51.5393 29.5044 51.7187 29.393C52.003 29.2194 52.0678 28.8766 52.0979 28.5738C52.1627 28.0173 52.2076 27.4562 52.2475 26.8997C52.7361 24.905 53.2301 22.9103 53.7188 20.9156C53.7934 20.6172 53.8684 20.3145 53.9032 20.0073C53.9582 19.6466 53.9531 19.2815 53.9332 18.9208Z" fill="#7CAFF6"/>
<path d="M57.6474 16.677C57.4779 16.5701 57.2584 16.5389 57.1088 16.4098C56.8994 16.2317 56.8994 15.9334 56.9842 15.6885C57.0639 15.4436 57.2135 15.2121 57.2486 14.9583C57.3482 14.2949 56.7099 13.7562 56.2362 13.2352C54.9742 11.8461 54.7149 10.0027 54.675 8.27072C54.6652 7.89226 54.7098 7.49598 54.6402 7.21546C54.645 7.18429 54.6551 7.15315 54.6602 7.12198C54.8895 6.1157 54.5353 5.47012 53.8122 4.79334C52.6351 3.68468 50.745 3.23943 49.1339 3.79153C49.0941 3.80489 49.0492 3.82269 49.0043 3.83605C48.4508 4.26349 47.9719 4.78444 47.7676 5.46121C47.6379 5.87974 47.5981 6.37397 47.6927 6.81031C47.7126 6.8682 47.7325 6.92605 47.7575 6.9795C47.7875 6.51644 47.8821 6.01775 48.1465 5.88864C48.3809 5.76843 49.5729 6.12908 49.9271 6.10681C50.5306 6.0712 51.6028 5.70164 51.9269 6.35169C52.0917 6.6812 51.8969 7.06409 51.7473 7.38021C51.7375 7.39803 51.7324 7.41139 51.7226 7.4292C51.6328 7.62064 51.548 7.81656 51.5329 7.88334C51.4184 8.4577 51.3336 8.97866 51.3336 9.40609C51.104 10.163 51.0641 10.9734 51.0942 11.7659C51.0989 11.8817 51.104 12.0019 51.159 12.1043C51.3684 12.5095 52.0266 12.4115 52.5155 12.5095C53.0143 12.6119 53.3982 12.9814 53.6377 13.3866C54.3059 14.5175 54.0317 15.8889 54.1962 17.1579C54.2411 17.4962 54.3208 17.8391 54.5106 18.1374C54.8945 18.7474 55.7523 19.0902 56.5154 18.9388C57.2834 18.7875 57.8969 18.1552 57.9567 17.4606C57.9965 17.1712 57.9168 16.8462 57.6474 16.677Z" fill="#D62929"/>
<path d="M53.8241 51.9227C53.9288 52.0473 54.1284 52.0608 54.303 52.0651C54.8017 52.0741 55.3005 52.0874 55.7891 52.0117C55.9039 51.9939 56.0187 51.9716 56.1133 51.9137C56.2082 51.8558 56.2781 51.7534 56.2629 51.6554C56.248 51.5486 56.1383 51.4685 56.0187 51.4374C55.8989 51.4106 55.7743 51.4239 55.6547 51.4374C55.2505 51.4863 54.8466 51.5577 54.4428 51.5975C54.2631 51.6156 54.0288 51.5797 53.8592 51.6243C53.6995 51.6554 53.7394 51.8248 53.8241 51.9227Z" fill="white"/>
<path d="M44.1351 51.718C44.2151 51.7804 44.3296 51.7982 44.4342 51.8072C44.9729 51.8606 45.5165 51.8516 46.0602 51.8473C46.4492 51.8428 46.8433 51.8383 47.2323 51.8338C47.5865 51.8295 47.9405 51.825 48.2846 51.7626C48.3646 51.7494 48.4443 51.7316 48.5091 51.687C48.5739 51.6469 48.6287 51.5802 48.6287 51.5088C48.6287 51.4732 48.6138 51.4376 48.5838 51.4108C48.529 51.3665 48.4443 51.3753 48.3693 51.3843C47.0726 51.5667 45.7512 51.5802 44.4494 51.4331C44.3545 51.4244 44.1749 51.3843 44.1003 51.46C44.0253 51.5311 44.0604 51.6647 44.1351 51.718Z" fill="white"/>
<path d="M33.3794 22.6183C33.3046 22.4001 33.2199 22.1641 33.2947 21.9593C33.3794 21.7233 33.6438 21.6209 33.8882 21.5586C34.1675 21.4873 34.4617 21.4383 34.751 21.4161C34.8757 21.4072 35.1699 21.376 35.2896 21.4383C35.4592 21.5274 35.4842 21.7278 35.5291 21.9103C35.8133 22.9967 36.0976 23.8872 36.2921 24.8935C36.317 25.0315 36.342 25.1918 36.2572 25.2942C36.2023 25.361 36.1175 25.3877 36.0377 25.4099C35.5888 25.5391 34.2472 25.9531 34.0527 25.2408C33.8133 24.3636 33.6887 23.4909 33.3794 22.6183Z" fill="#AA6A64"/>
<path d="M33.4623 22.3847C33.4474 22.3001 33.4374 22.2066 33.4773 22.1354C33.5222 22.0508 33.6219 22.0196 33.7117 21.9929C34.0957 21.8861 34.4897 21.8193 34.8837 21.7525C34.9486 21.7436 35.1032 21.7168 35.168 21.7391C35.2079 21.7525 35.2877 21.7748 35.3176 21.8059C35.4274 21.9128 35.4174 22.0686 35.4723 22.2111C35.5271 22.3357 35.5271 22.4738 35.567 22.6029C35.6119 22.7454 35.6418 22.8879 35.6767 23.0303C35.7266 23.2396 35.7864 23.4533 35.8563 23.6581C35.9061 23.8095 35.946 23.9609 36.0009 24.1078C36.0258 24.1746 36.0408 24.2548 36.0259 24.3216C36.0009 24.4195 35.9261 24.464 35.8314 24.4952C35.6518 24.5531 35.4573 24.5842 35.2678 24.611C34.9885 24.6555 34.7042 24.7 34.4249 24.7445C34.3251 24.7623 34.1206 24.8202 34.0458 24.7045C34.0059 24.6422 34.001 24.5308 33.986 24.4596C33.961 24.3616 33.9411 24.2681 33.9162 24.1702C33.8164 23.7872 33.6968 23.4088 33.602 23.0259C33.5471 22.8122 33.4973 22.5984 33.4623 22.3847Z" fill="white"/>
<path d="M34.5841 21.627C34.5541 21.627 34.5192 21.6314 34.4843 21.6359C34.4095 21.6492 34.3347 21.6626 34.2599 21.6759C34.215 21.6849 34.1602 21.6982 34.1602 21.7205C34.1602 21.7294 34.1751 21.7383 34.19 21.7427C34.2648 21.7605 34.6389 21.716 34.6489 21.6537C34.6439 21.6358 34.619 21.627 34.5841 21.627Z" fill="#5E625E"/>
<path d="M34.1128 21.7116C34.0978 21.6982 34.0779 21.7026 34.0629 21.7116C34.048 21.7205 34.043 21.7383 34.043 21.7516C34.043 21.7605 34.048 21.7739 34.0529 21.7828C34.0679 21.8006 34.1028 21.7962 34.1178 21.7783C34.1327 21.7605 34.1327 21.7338 34.1178 21.716L34.1128 21.7116Z" fill="#5E625E"/>
<path d="M35.0399 24.9702C35.01 25.0013 35 25.0459 35 25.0904C35 25.1127 35.005 25.1305 35.01 25.1527C35.0299 25.2017 35.0798 25.2418 35.1347 25.2551C35.1895 25.2729 35.2493 25.2685 35.3042 25.2507C35.3192 25.2462 35.3342 25.2418 35.3442 25.2329C35.3591 25.224 35.3641 25.2062 35.3691 25.1928C35.389 25.1349 35.389 25.0726 35.3541 25.0191C35.2942 24.9256 35.1247 24.8811 35.0399 24.9702Z" fill="#EBEFEB"/>
<path d="M32.0897 23.7607C31.8453 23.4891 31.4562 23.3243 31.0672 23.3332C31.157 23.2531 31.2518 23.1195 31.162 23.0349C31.1072 22.9815 31.0123 22.9904 30.9325 22.9993C30.5934 23.0349 30.2443 23.0082 29.9102 22.9236C29.8803 22.9147 29.8503 22.9103 29.8204 22.9014C27.8204 22.2335 25.8854 21.4142 24.04 20.4569C24.1847 19.8692 24.1547 19.2592 24.1248 18.6581C24.0799 17.7899 24.035 16.9261 23.9951 16.0579C23.9802 15.724 23.9452 15.3633 23.6909 15.1229C23.237 14.6999 22.3642 14.976 22.06 15.4969C21.7558 16.0134 21.8406 16.6412 21.9353 17.22C22.1847 18.7338 22.434 20.2521 22.6834 21.7659C22.7133 21.9396 22.7483 22.1266 22.8879 22.2513C22.9976 22.3492 23.1572 22.3849 23.3068 22.4205C25.3268 22.9013 27.3417 23.3778 29.3615 23.8586C29.3665 23.8542 29.3665 23.8497 29.3715 23.8497C30.1047 24.2282 31.0074 24.3306 31.8153 24.1124C31.9001 24.0902 31.9949 24.059 32.0448 23.9922C32.0947 23.9165 32.0997 23.8364 32.0897 23.7607Z" fill="#EADDD0"/>
<path d="M29.3927 23.8988C29.3777 23.9344 29.3578 23.97 29.3179 23.9878C29.283 24.0056 29.2381 23.9967 29.1982 23.9923C27.1184 23.6494 24.9539 23.36 22.9839 22.6699C22.8243 22.612 22.6597 22.5541 22.54 22.4428C22.4004 22.3137 22.3355 22.1311 22.2807 21.9575C21.6373 19.9494 21.0288 17.8969 21.1086 15.8131C21.1236 15.3768 21.1884 14.9092 21.5076 14.5798C21.8617 14.2191 22.4353 14.1167 22.9689 14.0544C23.3131 14.0143 23.7071 13.992 23.9764 14.1879C24.2407 14.3794 24.2956 14.7133 24.3355 15.0116C24.4602 16.0135 24.5898 17.0197 24.7145 18.0215C24.7993 18.6983 24.8841 19.3751 24.9739 20.0518C24.9888 20.181 25.0088 20.3145 25.0736 20.4303C25.2083 20.6707 25.5125 20.7865 25.7918 20.8889C26.7843 21.2496 27.7618 21.6503 28.7194 22.0866C28.9788 22.2068 29.7817 22.4963 29.8764 22.7634C29.9313 22.9148 29.7019 23.1686 29.6321 23.3066C29.5273 23.5248 29.4974 23.6851 29.3927 23.8988Z" fill="#E8E8E8"/>
<path d="M21.8348 51.8314C22.0592 51.9785 21.755 52.0897 21.6054 52.103C21.3361 52.1208 21.0568 52.112 20.7974 52.0632C20.7276 52.0496 20.6578 52.0364 20.6029 52.0008C20.558 51.974 20.5281 51.9384 20.4932 51.9028C20.4084 51.8048 20.2039 51.649 20.169 51.5332C20.1441 51.4398 20.2189 51.3463 20.2738 51.2616C20.3984 51.0792 20.6079 50.892 20.5979 50.674C21.1814 50.7229 21.735 50.5715 22.2188 50.6873C22.2587 50.8432 22.4133 50.9677 22.3385 51.088C22.3834 51.0078 23.7899 51.2794 23.9545 51.3017C24.2238 51.3418 24.4931 51.3774 24.7624 51.3952C24.9719 51.4084 25.3808 51.3328 25.5005 51.4976C25.5404 51.5555 25.5554 51.6222 25.5654 51.6891C25.5704 51.7379 25.5703 51.7916 25.5504 51.8359C25.5155 51.9161 25.4157 51.9785 25.311 52.005C24.1589 52.3303 23.0068 51.8181 21.8348 51.8314Z" fill="#E94A47"/>
<path d="M25.549 26.5751C25.4742 26.3748 25.2348 26.2679 25.0104 26.1877C23.5441 25.6801 21.9332 25.6267 20.3572 25.6356C19.5392 25.6401 18.7263 25.6579 17.9083 25.689C17.3398 25.7113 16.1877 25.7202 15.8934 26.2679C15.5643 26.8823 15.275 28.0978 15.4446 28.7167C15.7488 29.8432 15.6391 31.86 15.9782 33.3116C15.9433 39.2958 15.9084 45.2754 15.8735 51.2596C16.4171 51.2728 16.9608 51.2819 17.5044 51.2951C17.5842 49.3226 18.2624 47.3993 18.826 45.4714C19.4195 43.4322 19.8834 41.3708 20.2275 39.2958C20.3422 43.1606 20.4569 47.0297 20.5766 50.8945C21.1202 50.8945 21.6638 50.8945 22.2075 50.8945C22.2175 48.922 22.8259 46.9853 23.3197 45.0484C24.4668 40.5559 25.4493 33.5121 25.3645 28.9349C25.4143 28.2537 25.4593 27.5724 25.559 26.9224C25.574 26.8066 25.5889 26.6864 25.549 26.5751Z" fill="#D6D7D8"/>
<path d="M17.1058 52.2157C17.3253 52.3671 17.0161 52.4738 16.8664 52.4828C16.5971 52.4961 16.3178 52.4783 16.0585 52.425C15.9887 52.4117 15.9188 52.3936 15.8639 52.358C15.8191 52.3315 15.7892 52.2914 15.7593 52.2558C15.6745 52.1533 15.4749 51.993 15.45 51.8817C15.4251 51.7882 15.5049 51.6948 15.5647 51.6101C15.6944 51.4319 15.9139 51.245 15.9089 51.0268C16.4874 51.0891 17.051 50.9466 17.5298 51.0759C17.5647 51.2317 17.7143 51.3608 17.6345 51.4811C17.6844 51.4009 19.0808 51.6993 19.2454 51.7304C19.5098 51.775 19.7791 51.8151 20.0534 51.8416C20.2628 51.8594 20.6718 51.7928 20.7865 51.9574C20.8264 52.0153 20.8364 52.0822 20.8414 52.1488C20.8464 52.1979 20.8414 52.2513 20.8214 52.2959C20.7815 52.3758 20.6818 52.4337 20.5771 52.4605C19.41 52.7632 18.2778 52.229 17.1058 52.2157Z" fill="#E94A47"/>
<path d="M22.9596 5.26809C22.416 5.63764 22.0868 6.20311 21.7826 6.75076C21.4086 7.43199 21.0395 8.13993 20.9847 8.89686C20.9447 9.45787 21.0694 10.0545 20.7852 10.5532C21.8574 10.9183 22.9098 11.3234 23.9422 11.7687C25.4134 10.3483 26.4359 8.56292 26.8598 6.66617C26.8748 6.60383 26.8847 6.53705 26.8598 6.47471C26.8298 6.40793 26.76 6.3634 26.6952 6.32331C25.7775 5.78012 24.7152 5.47291 23.6629 5.16569C23.5532 5.13452 23.4384 5.0989 23.3237 5.11226C23.1891 5.12562 23.0694 5.19239 22.9596 5.26809Z" fill="#EADDD0"/>
<path d="M25.4514 25.3497C25.4015 24.3613 25.3766 23.3683 25.3915 22.3799C25.4165 20.1092 25.2818 17.8518 25.0973 15.5855C25.0225 14.6682 24.9377 13.7555 24.8429 12.8383C24.808 12.4821 23.646 12.1081 23.3567 12.0547C23.1822 12.0235 23.0126 11.9745 22.848 11.9255C22.6884 11.8765 22.5288 11.8231 22.3742 11.7697C21.5812 11.4981 20.7932 11.2265 20.0002 10.9549C19.8805 10.9148 19.7558 10.8747 19.6361 10.897C19.5413 10.9148 19.4615 10.9682 19.3867 11.0217C17.9105 12.0858 17.5065 13.8178 17.1025 15.3895C16.1898 18.9248 15.6761 22.5357 15.5664 26.1512C15.5664 26.1512 15.8008 26.7255 16.5938 27.1307C17.3868 27.5359 20.2446 27.8342 20.2446 27.8342L24.1347 27.4557C24.1198 27.4602 25.5112 27.0639 25.4514 25.3497Z" fill="#3281EC"/>
<path d="M30.6806 22.4504C30.7305 22.2278 30.7904 21.9874 30.9549 21.8315C31.1445 21.6534 31.4088 21.6579 31.6332 21.6935C31.8925 21.7335 32.1519 21.8003 32.3963 21.8849C32.501 21.9205 32.7504 22.0051 32.8152 22.1031C32.905 22.2411 32.8202 22.4326 32.7654 22.6107C32.4312 23.6793 32.2018 24.5787 31.8377 25.5404C31.7878 25.674 31.723 25.8209 31.6033 25.8832C31.5285 25.9233 31.4437 25.9144 31.3639 25.9055C30.94 25.8566 29.6533 25.723 29.8627 25.0239C30.1221 24.1557 30.4761 23.332 30.6806 22.4504Z" fill="#3D3D3D"/>
<path d="M30.8688 22.274C30.9037 22.1938 30.9386 22.1092 31.0084 22.0603C31.0882 22.0024 31.183 22.0113 31.2678 22.0202C31.6269 22.0692 31.981 22.1537 32.3301 22.2428C32.3849 22.2562 32.5246 22.2918 32.5645 22.3363C32.5894 22.363 32.6393 22.412 32.6493 22.4521C32.6842 22.5901 32.5894 22.7237 32.5645 22.8706C32.5395 23.0042 32.4697 23.1244 32.4348 23.2535C32.3999 23.396 32.35 23.534 32.3001 23.6721C32.2303 23.8769 32.1705 24.0861 32.1156 24.2954C32.0757 24.4468 32.0308 24.5937 32.0009 24.7451C31.9859 24.8163 31.956 24.8876 31.9112 24.9454C31.8414 25.0256 31.7616 25.0345 31.6718 25.0256C31.4972 25.0078 31.3276 24.9633 31.163 24.9232C30.9137 24.8564 30.6693 24.7941 30.4199 24.7273C30.3302 24.705 30.1406 24.6827 30.1406 24.5492C30.1406 24.4779 30.1955 24.38 30.2154 24.3088C30.2454 24.2153 30.2753 24.1217 30.3052 24.0238C30.4199 23.6453 30.5246 23.2669 30.6444 22.8884C30.7142 22.6836 30.789 22.4788 30.8688 22.274Z" fill="white"/>
<path d="M32.1477 22.0156C32.1228 22.0023 32.0928 21.9934 32.0629 21.9889C31.9981 21.9711 31.9282 21.9578 31.8634 21.94C31.8235 21.9311 31.7736 21.9222 31.7637 21.94C31.7587 21.9489 31.7637 21.9622 31.7736 21.9711C31.8235 22.0157 32.1477 22.1136 32.1826 22.0602C32.1926 22.0468 32.1727 22.029 32.1477 22.0156Z" fill="#5E625E"/>
<path d="M31.7303 21.9115C31.7253 21.8982 31.7103 21.8893 31.6904 21.8937C31.6754 21.8982 31.6605 21.9071 31.6555 21.9249C31.6505 21.9338 31.6455 21.9471 31.6505 21.9561C31.6555 21.9783 31.6804 21.9872 31.7004 21.9783C31.7203 21.9694 31.7303 21.9472 31.7303 21.9249V21.9115Z" fill="#5E625E"/>
<path d="M30.7941 25.1552C30.7542 25.173 30.7193 25.2086 30.6993 25.2487C30.6894 25.2665 30.6794 25.2888 30.6745 25.3066C30.6645 25.36 30.6844 25.409 30.7193 25.4446C30.7542 25.4802 30.8091 25.498 30.859 25.5025C30.8739 25.5025 30.8889 25.5025 30.8989 25.498C30.9138 25.4936 30.9287 25.4847 30.9387 25.4713C30.9836 25.4312 31.0185 25.3689 31.0185 25.311C31.0235 25.2086 30.9088 25.1062 30.7941 25.1552Z" fill="#EBEFEB"/>
<path d="M23.3026 8.44505C23.1331 8.28475 22.9186 8.10665 22.6692 8.13782C22.4398 8.16453 22.2802 8.36489 22.2353 8.5697C22.1905 8.77006 22.2303 8.97934 22.2453 9.18416C22.2503 9.22868 22.2453 9.27765 22.2154 9.30882C22.1805 9.34445 22.1206 9.34445 22.0658 9.34888C21.8613 9.3667 21.6718 9.46465 21.5521 9.61158C21.4623 9.72289 21.4124 9.86093 21.3027 9.96334C21.1581 10.1013 20.9386 10.1459 20.7292 10.1726C20.5247 10.1993 20.3252 10.2216 20.1207 10.2305C19.9561 10.2394 19.7616 10.2305 19.6668 10.1058C19.6469 10.0836 19.6369 10.0568 19.6419 10.0257C19.6519 9.97669 19.7067 9.95444 19.7516 9.92773C19.9212 9.82532 19.981 9.62494 19.991 9.4424C20.006 9.25983 19.991 9.06839 20.0808 8.89921C20.1307 8.80569 20.2104 8.72553 20.2903 8.6543C20.8688 8.12 21.6269 7.76382 22.4199 7.559C22.6294 7.50558 23.4174 7.25177 23.5969 7.39871C23.7665 7.53672 23.3475 8.24469 23.3026 8.44505Z" fill="#D62929"/>
<path d="M26.2209 7.38882C26.3256 7.44224 26.4254 7.5135 26.4852 7.60253C26.5251 7.66041 26.545 7.72722 26.58 7.7851C26.6597 7.92311 26.8094 8.02552 26.979 8.05669C26.979 7.91422 26.979 7.76728 26.984 7.62481C26.984 7.59364 26.984 7.558 27.0139 7.53575C27.0538 7.50458 27.1136 7.5224 27.1585 7.49566C27.1984 7.47341 27.2034 7.42442 27.2084 7.38436C27.2183 7.20182 27.2283 7.01035 27.1585 6.83671C27.1336 6.77439 27.0937 6.71205 27.0338 6.67642C26.969 6.63635 26.8892 6.63189 26.8094 6.63189C26.4353 6.62299 25.6573 6.66752 25.368 6.93022C25.0638 7.21071 26.0164 7.28641 26.2209 7.38882Z" fill="#D62929"/>
<path d="M16.2484 25.7997C16.3032 26.0936 16.378 26.3919 16.3082 26.6813C16.2583 26.8861 16.1336 27.0687 15.989 27.2245C15.3357 27.928 14.2733 28.1373 13.2809 28.1952C12.1138 28.2664 10.7971 28.1239 10.0341 27.2824C9.56524 26.7659 9.39567 26.058 9.41562 25.3812C9.43557 24.7044 9.63008 24.041 9.8196 23.3909C10.2834 21.8059 10.7522 20.2208 11.2161 18.6357C11.2909 18.3819 11.3707 18.1192 11.5652 17.9322C11.8245 17.6829 12.2185 17.6161 12.5876 17.5805C13.2659 17.5092 13.9591 17.4736 14.6225 17.6116C15.1761 17.7274 16.0239 18.0524 16.2833 18.5778C16.5725 19.17 16.3581 20.2074 16.3132 20.8397C16.1935 22.4916 15.9292 24.1612 16.2484 25.7997Z" fill="#736357"/>
<path d="M17.3408 14.6414C17.9244 13.8444 18.7423 13.1053 19.8495 12.7045C20.9567 12.3038 22.3881 12.3083 23.3506 12.8737C24.2982 13.4303 24.6124 14.3787 24.7371 15.2647C24.9666 16.8676 24.772 18.4928 24.3381 20.0734C24.1536 20.7546 23.9192 21.4358 23.4952 22.0592C22.9765 22.8206 22.1935 23.4617 21.3806 24.0672C19.8046 25.2382 17.9792 26.3425 15.7798 26.6853C15.5453 26.7209 15.291 26.7565 15.1364 26.8857C14.8372 27.135 15.1364 27.5669 15.5703 27.6604C16.0042 27.7539 16.468 27.6248 16.872 27.4778C18.9069 26.7432 20.5676 25.5588 22.1885 24.3967C22.7571 23.9916 23.3307 23.5775 23.6848 23.0565C23.979 22.6247 24.1087 22.1438 24.2334 21.6674C24.6922 19.9086 25.156 18.141 25.3057 16.3511C25.3655 15.6031 25.3755 14.8417 25.0962 14.1204C24.8169 13.3991 24.2184 12.7179 23.3207 12.3661C22.7821 12.1569 22.1686 12.0678 21.5601 12.0545C20.0988 12.0233 18.6326 12.4107 17.5353 13.1186C17.0914 13.4036 16.6925 13.7553 16.5379 14.1783C16.3982 14.5568 16.463 15.0777 16.9119 15.3271C17.0665 15.1178 17.1762 14.864 17.3408 14.6414Z" fill="#736357"/>
<path d="M11.1191 15.5233C11.7724 14.8065 12.8048 14.2499 13.9469 14.2099C14.5354 14.1876 15.119 14.2989 15.6775 14.4458C16.0815 14.5527 16.4855 14.6863 16.7897 14.9178C17.2735 15.2829 17.4182 15.835 17.4381 16.3515C17.4631 16.9036 17.3733 17.4602 17.1788 17.9945C17.1039 18.2037 17.0042 18.413 16.8047 18.5688C16.5105 18.8004 16.0566 18.8627 15.6327 18.8849C14.0567 18.9829 12.4557 18.7692 11.0144 18.275C10.1765 17.99 9.93208 17.9188 10.1665 17.2153C10.366 16.6142 10.6552 16.0309 11.1191 15.5233Z" fill="#63564B"/>
<path d="M13.5757 23.9083C13.7851 23.8727 14.0345 23.8326 14.1841 23.9707C14.2589 24.0419 14.2888 24.1443 14.3088 24.2423C14.4435 24.928 14.3387 25.6493 14.0046 26.2815C13.8949 26.4908 13.7602 26.6911 13.5707 26.847C13.1867 27.1631 12.638 27.2522 12.1143 27.2432C11.8101 27.2388 11.4909 27.1987 11.2415 27.0473C10.8425 26.8025 10.7079 26.3394 10.668 25.9075C10.6331 25.5201 10.643 25.1283 10.7129 24.7454C10.7478 24.5361 10.7927 23.9083 11.057 23.8282C11.1917 23.7881 11.5059 23.9128 11.6505 23.935C11.865 23.9662 12.0844 23.9885 12.2989 23.9974C12.7278 24.0107 13.1567 23.984 13.5757 23.9083Z" fill="#63564B"/>
<path d="M10.5858 24.2096C10.5759 24.2452 10.5709 24.2897 10.6008 24.3164C10.6208 24.3342 10.6507 24.3342 10.6806 24.3342C11.708 24.3743 12.7354 24.4099 13.7628 24.45C13.9474 24.4589 14.1518 24.4589 14.2965 24.3565C14.476 24.2318 14.496 23.9825 14.3863 23.8088C14.2765 23.6352 14.0571 23.5283 13.8376 23.4883C13.6182 23.4482 13.3888 23.4615 13.1643 23.4704C12.5509 23.5016 11.9325 23.5283 11.319 23.515C11.1494 23.5105 11.0048 23.4749 10.8701 23.5862C10.7105 23.7198 10.6307 24.027 10.5858 24.2096Z" fill="#63564B"/>
<path d="M14.274 20.3496C14.3089 20.3496 14.3438 20.3496 14.3737 20.363C14.4236 20.3852 14.4386 20.4431 14.4486 20.4921C14.4984 20.7548 14.5034 21.0308 14.4535 21.2935C14.4485 21.3247 14.4386 21.3559 14.4137 21.3693C14.3937 21.3826 14.3638 21.3826 14.3388 21.3826C13.3464 21.3603 12.3489 21.3381 11.3564 21.3069C11.3514 21.1155 11.3664 20.9196 11.4112 20.7281C11.5259 20.2428 12.1693 20.3897 12.5982 20.3808C13.1568 20.3719 13.7154 20.363 14.274 20.3496Z" fill="#63564B"/>
<path d="M10.6212 19.6194C10.6212 19.842 10.6312 20.0691 10.5963 20.2917C10.5065 20.8928 10.1125 21.4226 9.68359 21.8991C9.84818 21.9569 10.0177 22.0148 10.1823 22.0727C10.2871 21.859 10.3868 21.6453 10.4915 21.436C10.5913 21.2267 10.6961 21.013 10.7609 20.7904C10.8407 20.5143 10.8556 20.2294 10.8756 19.9444C10.8955 19.606 11.1749 18.3638 10.8956 18.1367C10.5415 18.2792 10.6262 19.3122 10.6212 19.6194Z" fill="#63564B"/>
<path d="M26.3712 27.2884C26.5707 27.4398 26.7802 27.5912 27.0295 27.658C27.2789 27.7248 27.5831 27.6891 27.7477 27.5066C27.9223 27.3107 27.8824 27.0168 27.7278 26.8075C27.5732 26.5983 27.3288 26.4603 27.0944 26.3267C27.254 26.3801 27.4186 26.202 27.3837 26.055C27.3438 25.9037 27.1791 25.8102 27.0146 25.7657C26.85 25.7211 26.6754 25.7122 26.5158 25.6544C26.3712 25.6054 26.1568 25.5786 26.0371 25.494C25.5184 25.1289 25.3139 24.8796 24.6256 24.2919C24.4311 24.1271 24.2615 23.9535 24.082 23.7754C23.9573 23.6507 23.8426 23.5172 23.698 23.4103C23.4835 23.25 23.1244 23.2144 22.9199 23.0452C22.7554 22.9116 22.6057 22.7959 22.3713 22.8893C21.9972 23.0452 22.0471 23.5394 22.2267 23.7976C22.5259 24.2206 23.0695 24.5902 23.4686 24.9375C23.9174 25.3293 24.3763 25.7122 24.8401 26.0907C25.3388 26.4959 25.8525 26.8966 26.3712 27.2884Z" fill="#EDD5BE"/>
<path d="M21.9735 20.9887C21.8588 20.8729 21.7391 20.7571 21.6692 20.6147C21.5894 20.4544 21.5745 20.2718 21.5795 20.0893C21.6044 19.3101 22.0084 18.571 22.4024 17.8541C22.6418 17.4223 22.8812 16.9904 23.1705 16.5896C23.37 16.3136 23.6193 15.9262 23.6842 15.6146C23.759 15.2539 23.8288 14.5593 23.7789 14.4302C23.5246 13.749 22.9161 13.1568 22.0682 13.1523C21.8288 13.1523 20.956 13.4462 20.7865 13.602C20.587 13.7846 20.2379 14.31 19.9835 14.5549C19.9037 14.635 19.8638 14.7374 19.8239 14.8354C19.7142 15.107 19.6095 15.3786 19.4998 15.6502C19.3701 15.9707 19.2454 16.2913 19.1556 16.6208C19.0309 17.066 18.9761 17.5246 18.991 17.9743C19.006 18.3751 18.8464 18.9673 18.9162 19.3591C18.986 19.7598 18.9262 20.2763 18.996 20.677C19.0459 20.962 19.0958 21.2469 19.2155 21.5096C19.3302 21.759 19.5097 21.9816 19.6942 22.1953C20.587 23.2149 23.8936 25.5658 24.9759 26.4207L26.0332 25.3699C25.0058 24.7243 22.8163 21.8213 21.9735 20.9887Z" fill="#7CAFF6"/>
<path d="M20.5823 5.27403C20.2731 5.49221 19.8741 5.57235 19.5249 5.72818C19.1758 5.88402 18.8417 6.19123 18.9015 6.53852C18.9763 6.96597 19.6097 7.21975 19.5947 7.65166C19.5898 7.80303 19.5 7.94551 19.49 8.09691C19.4551 8.49316 19.9589 8.78703 20.4027 8.76032C20.8466 8.73361 21.2356 8.49762 21.6197 8.28834C23.081 7.49581 24.7717 7.05949 26.4774 7.01496C26.7617 7.00604 27.0609 7.0105 27.3153 6.89917C27.5746 6.79233 27.7791 6.52963 27.6993 6.28474C27.5895 5.93745 27.0509 5.87512 26.8165 5.58571C26.6868 5.42542 26.6619 5.21615 26.5771 5.0336C26.4175 4.70411 26.0684 4.49039 25.7293 4.29449C25.041 3.88931 24.3128 3.47523 23.4949 3.41735C22.7667 3.36392 22.0087 3.61326 21.4301 3.99618C20.9114 4.34792 21.101 4.90448 20.5823 5.27403Z" fill="#D62929"/>
</svg>
