<svg width="76" height="76" viewBox="0 0 76 76" fill="none" xmlns="http://www.w3.org/2000/svg">
<g filter="url(#filter0_d_746_1023)">
<rect x="10" y="34.2852" width="40" height="40" rx="7" transform="rotate(-45 10 34.2852)" fill="#7509BD"/>
</g>
<path d="M46.625 41.5938H29.375C28.9602 41.5938 28.625 41.9289 28.625 42.3438V43.1875C28.625 43.2906 28.7094 43.375 28.8125 43.375H47.1875C47.2906 43.375 47.375 43.2906 47.375 43.1875V42.3438C47.375 41.9289 47.0398 41.5938 46.625 41.5938ZM32.0398 39.625C32.0867 39.625 32.1336 39.6203 32.1805 39.6133L36.1227 38.9219C36.1695 38.9125 36.2141 38.8914 36.2469 38.8563L46.182 28.9211C46.2038 28.8994 46.221 28.8737 46.2328 28.8453C46.2445 28.8169 46.2506 28.7866 46.2506 28.7559C46.2506 28.7252 46.2445 28.6948 46.2328 28.6664C46.221 28.6381 46.2038 28.6123 46.182 28.5906L42.2867 24.693C42.2422 24.6484 42.1836 24.625 42.1203 24.625C42.057 24.625 41.9984 24.6484 41.9539 24.693L32.0187 34.6281C31.9836 34.6633 31.9625 34.7055 31.9531 34.7523L31.2617 38.6945C31.2389 38.8201 31.2471 38.9493 31.2855 39.071C31.3238 39.1927 31.3913 39.3032 31.482 39.393C31.6367 39.543 31.8313 39.625 32.0398 39.625Z" fill="white"/>
<defs>
<filter id="filter0_d_746_1023" x="0.898438" y="0.900391" width="74.7695" height="74.7695" filterUnits="userSpaceOnUse" color-interpolation-filters="sRGB">
<feFlood flood-opacity="0" result="BackgroundImageFix"/>
<feColorMatrix in="SourceAlpha" type="matrix" values="0 0 0 0 0 0 0 0 0 0 0 0 0 0 0 0 0 0 127 0" result="hardAlpha"/>
<feOffset dy="4"/>
<feGaussianBlur stdDeviation="6"/>
<feColorMatrix type="matrix" values="0 0 0 0 0 0 0 0 0 0 0 0 0 0 0 0 0 0 0.25 0"/>
<feBlend mode="normal" in2="BackgroundImageFix" result="effect1_dropShadow_746_1023"/>
<feBlend mode="normal" in="SourceGraphic" in2="effect1_dropShadow_746_1023" result="shape"/>
</filter>
</defs>
</svg>
