<svg width="76" height="76" viewBox="0 0 76 76" fill="none" xmlns="http://www.w3.org/2000/svg">
<g filter="url(#filter0_d_746_1220)">
<path d="M14.9497 39.2349C12.2161 36.5012 12.2161 32.0691 14.9497 29.3354L33.3345 10.9506C36.0682 8.21696 40.5004 8.21696 43.234 10.9506L61.6188 29.3354C64.3525 32.0691 64.3525 36.5012 61.6188 39.2349L43.234 57.6197C40.5004 60.3533 36.0682 60.3533 33.3345 57.6197L14.9497 39.2349Z" fill="#191A1D"/>
<path d="M15.6569 38.5278C13.3137 36.1847 13.3137 32.3857 15.6569 30.0425L34.0416 11.6577C36.3848 9.31459 40.1838 9.31459 42.5269 11.6577L60.9117 30.0425C63.2548 32.3857 63.2548 36.1847 60.9117 38.5278L42.5269 56.9126C40.1838 59.2557 36.3848 59.2557 34.0416 56.9126L15.6569 38.5278Z" stroke="#7509BD" stroke-width="2"/>
</g>
<path d="M46.625 41.5938H29.375C28.9602 41.5938 28.625 41.9289 28.625 42.3438V43.1875C28.625 43.2906 28.7094 43.375 28.8125 43.375H47.1875C47.2906 43.375 47.375 43.2906 47.375 43.1875V42.3438C47.375 41.9289 47.0398 41.5938 46.625 41.5938ZM32.0398 39.625C32.0867 39.625 32.1336 39.6203 32.1805 39.6133L36.1227 38.9219C36.1695 38.9125 36.2141 38.8914 36.2469 38.8563L46.182 28.9211C46.2038 28.8994 46.221 28.8737 46.2328 28.8453C46.2445 28.8169 46.2506 28.7866 46.2506 28.7559C46.2506 28.7252 46.2445 28.6948 46.2328 28.6664C46.221 28.6381 46.2038 28.6123 46.182 28.5906L42.2867 24.693C42.2422 24.6484 42.1836 24.625 42.1203 24.625C42.057 24.625 41.9984 24.6484 41.9539 24.693L32.0187 34.6281C31.9836 34.6633 31.9625 34.7055 31.9531 34.7523L31.2617 38.6945C31.2389 38.8201 31.2471 38.9493 31.2855 39.071C31.3238 39.1927 31.3913 39.3032 31.482 39.393C31.6367 39.543 31.8313 39.625 32.0398 39.625Z" fill="white"/>
<defs>
<filter id="filter0_d_746_1220" x="0.898438" y="0.900391" width="74.7695" height="74.7695" filterUnits="userSpaceOnUse" color-interpolation-filters="sRGB">
<feFlood flood-opacity="0" result="BackgroundImageFix"/>
<feColorMatrix in="SourceAlpha" type="matrix" values="0 0 0 0 0 0 0 0 0 0 0 0 0 0 0 0 0 0 127 0" result="hardAlpha"/>
<feOffset dy="4"/>
<feGaussianBlur stdDeviation="6"/>
<feColorMatrix type="matrix" values="0 0 0 0 0 0 0 0 0 0 0 0 0 0 0 0 0 0 0.25 0"/>
<feBlend mode="normal" in2="BackgroundImageFix" result="effect1_dropShadow_746_1220"/>
<feBlend mode="normal" in="SourceGraphic" in2="effect1_dropShadow_746_1220" result="shape"/>
</filter>
</defs>
</svg>
