<svg width="76" height="76" viewBox="0 0 76 76" fill="none" xmlns="http://www.w3.org/2000/svg">
<g filter="url(#filter0_d_754_5227)">
<rect x="10" y="34.2891" width="40" height="40" rx="7" transform="rotate(-45 10 34.2891)" fill="#7509BD"/>
</g>
<path fill-rule="evenodd" clip-rule="evenodd" d="M29.5858 22.5858C29.9609 22.2107 30.4696 22 31 22H45C45.5304 22 46.0391 22.2107 46.4142 22.5858C46.7893 22.9609 47 23.4696 47 24V46C47 46.3635 46.8027 46.6984 46.4848 46.8746C46.1668 47.0509 45.7783 47.0407 45.47 46.848L38 42.1792L30.53 46.848C30.2217 47.0407 29.8332 47.0509 29.5152 46.8746C29.1973 46.6984 29 46.3635 29 46V24C29 23.4696 29.2107 22.9609 29.5858 22.5858ZM45 24H31L31 44.1958L37.47 40.152C37.7943 39.9493 38.2057 39.9493 38.53 40.152L45 44.1958V24Z" fill="white"/>
<defs>
<filter id="filter0_d_754_5227" x="0.898438" y="0.904297" width="74.7734" height="74.7695" filterUnits="userSpaceOnUse" color-interpolation-filters="sRGB">
<feFlood flood-opacity="0" result="BackgroundImageFix"/>
<feColorMatrix in="SourceAlpha" type="matrix" values="0 0 0 0 0 0 0 0 0 0 0 0 0 0 0 0 0 0 127 0" result="hardAlpha"/>
<feOffset dy="4"/>
<feGaussianBlur stdDeviation="6"/>
<feColorMatrix type="matrix" values="0 0 0 0 0 0 0 0 0 0 0 0 0 0 0 0 0 0 0.25 0"/>
<feBlend mode="normal" in2="BackgroundImageFix" result="effect1_dropShadow_754_5227"/>
<feBlend mode="normal" in="SourceGraphic" in2="effect1_dropShadow_754_5227" result="shape"/>
</filter>
</defs>
</svg>
