<svg width="32" height="32" viewBox="0 0 32 32" fill="none" xmlns="http://www.w3.org/2000/svg">
<path d="M26.6875 0H5.3125C2.37849 0 0 2.43947 0 5.44872V26.5513C0 29.5605 2.37849 32 5.3125 32H26.6875C29.6215 32 32 29.5605 32 26.5513V5.44872C32 2.43947 29.6215 0 26.6875 0Z" fill="#330000"/>
<path d="M15.5076 19.2036H10.5489L9.53986 22.4181C9.52613 22.4767 9.49289 22.5286 9.44586 22.5648C9.39883 22.601 9.34096 22.6192 9.28224 22.6163H6.77061C6.62749 22.6163 6.57736 22.5355 6.62036 22.374L10.9137 9.69221C10.9566 9.56016 10.9996 9.40978 11.0425 9.24093C11.0987 8.94708 11.1275 8.64862 11.1284 8.34926C11.1254 8.32832 11.1273 8.30697 11.1338 8.2869C11.1403 8.26683 11.1513 8.24859 11.1659 8.23363C11.1805 8.21867 11.1983 8.20739 11.2178 8.20069C11.2374 8.19399 11.2582 8.19205 11.2786 8.19503H14.6919C14.7919 8.19503 14.8491 8.23183 14.8636 8.30529L19.7365 22.3961C19.7795 22.543 19.7365 22.6164 19.6077 22.6163H16.817C16.7691 22.6218 16.7208 22.6091 16.6813 22.5808C16.6418 22.5524 16.6138 22.5103 16.6024 22.4622L15.5076 19.2036ZM11.3216 16.4295H14.7134L14.665 16.2658L14.5874 16.0066L14.532 15.8245L14.4436 15.5379L14.2557 14.9344L14.0905 14.3994L13.6614 13.0058C13.5546 12.6594 13.452 12.3116 13.3539 11.9625L13.2754 11.6791L13.1836 11.3441L13.0436 10.8249L13.0174 10.7271H12.996C12.8886 11.2556 12.7578 11.7788 12.604 12.295L12.2855 13.3458L12.1102 13.9263L11.9334 14.514C11.9014 14.6202 11.8696 14.7252 11.8377 14.8289L11.7427 15.1363L11.6482 15.4366L11.5542 15.7294L11.4607 16.0149C11.4297 16.1089 11.3987 16.2016 11.3679 16.2931L11.3216 16.4295ZM22.6342 10.5289C22.4153 10.5379 22.197 10.4994 21.9935 10.4159C21.7901 10.3325 21.6061 10.2059 21.4536 10.0445C21.3015 9.87612 21.1834 9.67855 21.106 9.46317C21.0287 9.2478 20.9936 9.01886 21.0027 8.78952C20.995 8.56248 21.0339 8.33631 21.1172 8.12578C21.2004 7.91525 21.326 7.72509 21.4857 7.56772C21.7939 7.26434 22.2042 7.09457 22.6314 7.09375L22.6771 7.09426C23.1924 7.09426 23.5967 7.25196 23.8901 7.5676C24.0382 7.7316 24.1533 7.92394 24.2288 8.13361C24.3043 8.34329 24.3387 8.56618 24.3301 8.78952C24.3391 9.01977 24.3029 9.24953 24.2236 9.46514C24.1443 9.68076 24.0236 9.87783 23.8686 10.0446C23.7121 10.2029 23.5264 10.3273 23.3222 10.4108C23.1181 10.4942 22.8998 10.535 22.6801 10.5305L22.6342 10.5289ZM21.153 22.3961V11.872C21.153 11.7399 21.21 11.6737 21.3247 11.6737H23.9652C24.0796 11.6737 24.1369 11.7398 24.137 11.872V22.3961C24.137 22.543 24.0797 22.6164 23.9652 22.6163H21.3462C21.2242 22.6163 21.16 22.5504 21.1536 22.4186L21.153 22.3961Z" fill="#FF9A00"/>
</svg>
