<svg width="32" height="32" viewBox="0 0 32 32" fill="none" xmlns="http://www.w3.org/2000/svg">
<path fill-rule="evenodd" clip-rule="evenodd" d="M9.40364 0.096C11.1098 0.0174545 11.6538 0 16 0C20.3462 0 20.8902 0.0189091 22.5949 0.096C24.2996 0.173091 25.4633 0.445091 26.4815 0.839273C27.5476 1.24218 28.5149 1.872 29.3149 2.68655C30.1295 3.48509 30.7578 4.45091 31.1593 5.51855C31.5549 6.53673 31.8255 7.70036 31.904 9.40218C31.9825 11.1113 32 11.6553 32 16C32 20.3462 31.9811 20.8902 31.904 22.5964C31.8269 24.2982 31.5549 25.4618 31.1593 26.48C30.7578 27.5478 30.1284 28.5152 29.3149 29.3149C28.5149 30.1295 27.5476 30.7578 26.4815 31.1593C25.4633 31.5549 24.2996 31.8255 22.5978 31.904C20.8902 31.9825 20.3462 32 16 32C11.6538 32 11.1098 31.9811 9.40364 31.904C7.70182 31.8269 6.53818 31.5549 5.52 31.1593C4.45225 30.7578 3.48483 30.1284 2.68509 29.3149C1.8711 28.5159 1.24119 27.5489 0.839273 26.4815C0.445091 25.4633 0.174545 24.2996 0.096 22.5978C0.0174545 20.8887 0 20.3447 0 16C0 11.6538 0.0189091 11.1098 0.096 9.40509C0.173091 7.70037 0.445091 6.53673 0.839273 5.51855C1.24178 4.45103 1.87217 3.48409 2.68655 2.68509C3.48515 1.87127 4.4516 1.24137 5.51855 0.839273C6.53673 0.445091 7.70036 0.174545 9.40218 0.096H9.40364ZM22.4655 2.976C20.7782 2.89891 20.272 2.88291 16 2.88291C11.728 2.88291 11.2218 2.89891 9.53454 2.976C7.97382 3.04727 7.12727 3.30764 6.56291 3.52727C5.81673 3.81818 5.28291 4.16291 4.72291 4.72291C4.19207 5.23935 3.78354 5.86805 3.52727 6.56291C3.30764 7.12727 3.04727 7.97382 2.976 9.53454C2.89891 11.2218 2.88291 11.728 2.88291 16C2.88291 20.272 2.89891 20.7782 2.976 22.4655C3.04727 24.0262 3.30764 24.8727 3.52727 25.4371C3.78327 26.1309 4.192 26.7607 4.72291 27.2771C5.23927 27.808 5.86909 28.2167 6.56291 28.4727C7.12727 28.6924 7.97382 28.9527 9.53454 29.024C11.2218 29.1011 11.7265 29.1171 16 29.1171C20.2735 29.1171 20.7782 29.1011 22.4655 29.024C24.0262 28.9527 24.8727 28.6924 25.4371 28.4727C26.1833 28.1818 26.7171 27.8371 27.2771 27.2771C27.808 26.7607 28.2167 26.1309 28.4727 25.4371C28.6924 24.8727 28.9527 24.0262 29.024 22.4655C29.1011 20.7782 29.1171 20.272 29.1171 16C29.1171 11.728 29.1011 11.2218 29.024 9.53454C28.9527 7.97382 28.6924 7.12727 28.4727 6.56291C28.1818 5.81673 27.8371 5.28291 27.2771 4.72291C26.7606 4.1921 26.1319 3.78358 25.4371 3.52727C24.8727 3.30764 24.0262 3.04727 22.4655 2.976ZM13.9564 20.9324C15.0977 21.4075 16.3686 21.4716 17.5519 21.1138C18.7352 20.756 19.7577 19.9984 20.4445 18.9705C21.1314 17.9426 21.4401 16.7082 21.3179 15.478C21.1957 14.2478 20.6502 13.0981 19.7745 12.2255C19.2163 11.6676 18.5414 11.2405 17.7983 10.9748C17.0552 10.7091 16.2624 10.6114 15.4771 10.6889C14.6917 10.7664 13.9333 11.017 13.2564 11.4227C12.5796 11.8285 12.0011 12.3793 11.5626 13.0354C11.1242 13.6916 10.8366 14.4368 10.7208 15.2174C10.6049 15.998 10.6635 16.7946 10.8924 17.5498C11.1214 18.3051 11.5149 19.0002 12.0447 19.5851C12.5745 20.1699 13.2274 20.6301 13.9564 20.9324ZM10.1847 10.1847C10.9484 9.42106 11.855 8.81528 12.8528 8.40198C13.8506 7.98869 14.92 7.77596 16 7.77596C17.08 7.77596 18.1494 7.98868 19.1472 8.40198C20.145 8.81528 21.0516 9.42106 21.8153 10.1847C22.5789 10.9484 23.1847 11.855 23.598 12.8528C24.0113 13.8506 24.224 14.92 24.224 16C24.224 17.08 24.0113 18.1494 23.598 19.1472C23.1847 20.145 22.5789 21.0516 21.8153 21.8153C20.273 23.3576 18.1812 24.224 16 24.224C13.8188 24.224 11.727 23.3576 10.1847 21.8153C8.64242 20.273 7.77596 18.1812 7.77596 16C7.77596 13.8188 8.64242 11.727 10.1847 10.1847ZM26.048 9.00073C26.2372 8.82221 26.3887 8.60754 26.4935 8.36942C26.5983 8.1313 26.6543 7.87457 26.6581 7.61444C26.6619 7.35432 26.6134 7.09607 26.5156 6.855C26.4178 6.61392 26.2726 6.39493 26.0887 6.21097C25.9047 6.02701 25.6857 5.88183 25.4446 5.78403C25.2036 5.68622 24.9453 5.63778 24.6852 5.64158C24.4251 5.64537 24.1683 5.70131 23.9302 5.8061C23.6921 5.91089 23.4774 6.06239 23.2989 6.25164C22.9517 6.61968 22.7616 7.10854 22.769 7.61444C22.7764 8.12035 22.9806 8.60346 23.3384 8.96123C23.6962 9.31899 24.1793 9.52324 24.6852 9.53062C25.1911 9.53799 25.68 9.34791 26.048 9.00073Z" fill="white"/>
</svg>
