<svg width="32" height="32" viewBox="0 0 32 32" fill="none" xmlns="http://www.w3.org/2000/svg">
<path d="M5.66663 0H26.3334C29.4666 0 32 2.59833 32 5.81192V26.1881C32 29.4017 29.4666 32 26.3334 32H5.66663C2.53338 32 0 29.4017 0 26.1881V5.81192C0 2.59833 2.53338 0 5.66663 0Z" fill="#00005B"/>
<path d="M7.59766 22.4429V8.37111C7.59766 8.27534 7.63766 8.22072 7.73103 8.22072L7.92453 8.22034L8.07428 8.21906L8.17991 8.21701L8.29241 8.21406L8.41328 8.2097L8.47766 8.20701C8.59766 8.20188 8.71953 8.19867 8.84391 8.19598L9.22578 8.18777C9.26916 8.18675 9.31303 8.18559 9.35716 8.18418L9.49091 8.1797C9.61091 8.17508 9.73391 8.17201 9.85991 8.16944L10.2465 8.16239L10.5142 8.15636L10.651 8.15226C10.9265 8.14329 11.1962 8.14021 11.4638 8.13918L11.8643 8.13867C12.9577 8.13867 13.8643 8.27534 14.611 8.56252C15.2804 8.79566 15.8907 9.17873 16.3977 9.68393C16.8273 10.126 17.1593 10.6577 17.371 11.2429C17.571 11.8173 17.6777 12.4053 17.6777 13.0207C17.6777 14.1967 17.411 15.1676 16.8777 15.9335C16.3443 16.6993 15.5977 17.2737 14.731 17.6019C13.8545 17.9324 12.8909 18.0583 11.84 18.0664H11.4589L11.3105 18.0648L11.2154 18.0625L11.1594 18.0601L11.1092 18.057L11.0643 18.0532C11.0355 18.0503 11.0067 18.0481 10.9778 18.0465L10.9128 18.0435L10.8415 18.0416L10.7227 18.04L10.491 18.0394V22.4292C10.5043 22.525 10.4377 22.607 10.3443 22.6207H7.75766C7.65103 22.6207 7.59766 22.566 7.59766 22.4429ZM10.5043 10.86V15.4548L10.661 15.4664C10.7819 15.4758 10.9031 15.4811 11.0243 15.4823H11.731C12.251 15.4823 12.771 15.4002 13.2643 15.2361C13.691 15.113 14.0643 14.8532 14.3577 14.5112C14.6377 14.1694 14.771 13.7044 14.771 13.1028C14.7836 12.6754 14.6772 12.2532 14.4643 11.8856C14.2472 11.545 13.9442 11.2796 13.579 11.1256L13.531 11.1061C13.0377 10.901 12.5043 10.8189 11.9577 10.8326L11.6494 10.833L11.5045 10.8339L11.3662 10.8359L11.2348 10.8389C11.1708 10.8407 11.1094 10.8432 11.051 10.8464C11.0224 10.8449 10.9937 10.8437 10.965 10.8428L10.8852 10.841C10.8727 10.8408 10.8602 10.8407 10.8477 10.8407L10.7769 10.8411L10.7127 10.8429L10.6829 10.8442L10.6283 10.8474L10.5803 10.8512L10.5587 10.8533L10.5208 10.8578L10.5043 10.86ZM19.5443 11.6532H21.8777C22.0035 11.6532 22.1058 11.7385 22.1504 11.8517L22.1577 11.872C22.1977 11.9814 22.2243 12.0907 22.2377 12.2138C22.2643 12.3506 22.291 12.501 22.3043 12.6378L22.3155 12.7701C22.3243 12.883 22.331 13.0032 22.331 13.1301C22.7129 12.6728 23.1708 12.2887 23.6835 11.9956L23.7577 11.9541C24.371 11.5984 25.0777 11.4207 25.7843 11.4207C25.8777 11.407 25.9577 11.4753 25.971 11.5711V14.2925C25.971 14.4019 25.9043 14.4429 25.7577 14.4429C25.3097 14.4301 24.8502 14.4651 24.4114 14.5587L24.3177 14.5797C23.931 14.6617 23.5577 14.7848 23.1977 14.9489C22.9443 15.072 22.7043 15.2361 22.5177 15.4548V22.4292C22.5177 22.566 22.4643 22.6207 22.3443 22.6207H19.7177C19.611 22.6343 19.5177 22.566 19.5043 22.4566V14.8259C19.5043 14.4976 19.5043 14.1557 19.491 13.8002L19.483 13.5335L19.4723 13.0002C19.4702 12.9112 19.4677 12.8224 19.4643 12.7335C19.4643 12.4189 19.4377 12.1182 19.411 11.8035C19.3977 11.7352 19.4377 11.6669 19.5043 11.6532C19.5043 11.6415 19.5239 11.6398 19.5379 11.648L19.5443 11.6532Z" fill="#9999FF"/>
</svg>
