<svg width="26" height="18" viewBox="0 0 26 18" fill="none" xmlns="http://www.w3.org/2000/svg">
<path d="M24.5562 7.81371C25.1479 8.52229 25.1479 9.47886 24.5562 10.1863C22.6924 12.4137 18.2208 17 13.0002 17C7.77957 17 3.30796 12.4137 1.44417 10.1863C1.15628 9.84701 1 9.42962 1 9C1 8.57038 1.15628 8.15299 1.44417 7.81371C3.30796 5.58629 7.77957 1 13.0002 1C18.2208 1 22.6924 5.58629 24.5562 7.81371V7.81371Z" stroke="white" stroke-width="2" stroke-linecap="round" stroke-linejoin="round"/>
<path d="M13.0009 12.4284C15.0693 12.4284 16.746 10.8934 16.746 8.99986C16.746 7.10631 15.0693 5.57129 13.0009 5.57129C10.9326 5.57129 9.25586 7.10631 9.25586 8.99986C9.25586 10.8934 10.9326 12.4284 13.0009 12.4284Z" stroke="white" stroke-width="2" stroke-linecap="round" stroke-linejoin="round"/>
</svg>
