<svg width="32" height="24" viewBox="0 0 32 24" fill="none" xmlns="http://www.w3.org/2000/svg">
<path d="M32 2.84106C30.8017 3.33097 29.5307 3.65254 28.2292 3.79508C29.5849 3.04525 30.6257 1.85786 31.1159 0.443094C29.8272 1.14884 28.4173 1.64609 26.947 1.91335C25.7494 0.735876 24.0432 0 22.1549 0C18.5291 0 15.5895 2.71278 15.5895 6.05866C15.5895 6.53359 15.6476 6.99595 15.7595 7.43951C10.3032 7.18676 5.46575 4.77471 2.22762 1.10906C1.66262 2.0039 1.33888 3.04479 1.33888 4.155C1.33888 6.25708 2.498 8.11148 4.2595 9.19804C3.21694 9.16791 2.19731 8.90804 1.28575 8.44013C1.28537 8.46551 1.28537 8.49089 1.28537 8.51639C1.28537 11.4519 3.54837 13.9008 6.55162 14.4574C5.58486 14.7 4.57079 14.7355 3.58687 14.5612C4.42225 16.9683 6.84688 18.7199 9.71963 18.7689C7.47275 20.3939 4.64188 21.3625 1.56613 21.3625C1.03613 21.3625 0.513625 21.3338 0 21.2779C2.90538 22.997 6.35625 24 10.0638 24C22.1396 24 28.743 14.7677 28.743 6.76131C28.743 6.49852 28.7368 6.23724 28.724 5.97745C30.0093 5.11997 31.1186 4.05789 32 2.84106Z" fill="white"/>
</svg>
