<svg width="26" height="19" viewBox="0 0 26 19" fill="none" xmlns="http://www.w3.org/2000/svg">
<path d="M24.5562 8.81942C25.1479 9.50614 25.1479 10.4332 24.5562 11.1188C22.6924 13.2776 18.2208 17.7224 13.0002 17.7224C7.77957 17.7224 3.30796 13.2776 1.44417 11.1188C1.15628 10.79 1 10.3855 1 9.96912C1 9.55275 1.15628 9.14823 1.44417 8.81942C3.30796 6.66068 7.77957 2.21582 13.0002 2.21582C18.2208 2.21582 22.6924 6.66068 24.5562 8.81942V8.81942Z" stroke="white" stroke-width="2" stroke-linecap="round" stroke-linejoin="round"/>
<path d="M13.0009 13.2922C15.0693 13.2922 16.746 11.8045 16.746 9.96933C16.746 8.13417 15.0693 6.64648 13.0009 6.64648C10.9326 6.64648 9.25586 8.13417 9.25586 9.96933C9.25586 11.8045 10.9326 13.2922 13.0009 13.2922Z" stroke="white" stroke-width="2" stroke-linecap="round" stroke-linejoin="round"/>
<path d="M3.65234 18L22.2205 1" stroke="white" stroke-width="2" stroke-linecap="round"/>
</svg>
